<?xml version="1.0" standalone="no"?>
<!DOCTYPE svg PUBLIC "-//W3C//DTD SVG 20010904//EN"
 "http://www.w3.org/TR/2001/REC-SVG-20010904/DTD/svg10.dtd">
<svg version="1.0" xmlns="http://www.w3.org/2000/svg"
 width="24" height="24" viewBox="0 0 512.000000 512.000000"
 preserveAspectRatio="xMidYMid meet">

<g transform="translate(0.000000,512.000000) scale(0.100000,-0.100000)"
fill="#000000" stroke="none">
<path d="M4107 4670 c-32 -12 -77 -32 -100 -47 -23 -14 -181 -164 -352 -334
l-310 -309 318 -317 318 -318 313 315 c293 295 315 320 352 394 38 79 39 82
39 190 -1 91 -5 121 -23 166 -44 111 -142 209 -252 252 -81 31 -226 35 -303 8z"/>
<path d="M2442 3077 c-424 -424 -772 -777 -772 -782 0 -13 612 -625 625 -625
13 0 1555 1542 1555 1555 0 13 -612 625 -625 625 -6 0 -358 -348 -783 -773z"/>
<path d="M743 3765 c-124 -34 -213 -108 -270 -223 l-38 -76 0 -1360 0 -1361
23 -58 c34 -82 125 -178 211 -220 l66 -32 1366 0 1365 0 76 38 c121 59 204
167 228 296 6 34 10 387 10 953 l0 900 -29 29 c-38 37 -82 39 -116 4 l-25 -24
0 -904 c0 -991 2 -965 -60 -1039 -16 -20 -53 -48 -82 -62 l-52 -26 -1305 0
c-908 0 -1318 3 -1345 11 -53 15 -138 100 -154 155 -9 32 -12 350 -12 1345 l0
1304 24 51 c13 28 41 65 62 82 78 65 36 62 1034 62 l907 0 27 26 c35 36 34 77
-3 115 l-29 29 -914 -1 c-754 0 -922 -3 -965 -14z"/>
<path d="M1432 1773 c-73 -208 -133 -386 -132 -396 0 -25 54 -77 79 -77 16 0
759 255 768 264 1 1 -129 133 -290 294 l-292 292 -133 -377z"/>
</g>
</svg>
