<?xml version="1.0" standalone="no"?>
<!DOCTYPE svg PUBLIC "-//W3C//DTD SVG 20010904//EN"
 "http://www.w3.org/TR/2001/REC-SVG-20010904/DTD/svg10.dtd">
<svg version="1.0" xmlns="http://www.w3.org/2000/svg"
 width="24" height="24" viewBox="0 0 48.000000 48.000000"
 preserveAspectRatio="xMidYMid meet">

<g transform="translate(0.000000,48.000000) scale(0.100000,-0.100000)"
fill="#000000" stroke="none">
<path d="M105 370 l-50 -50 53 -53 52 -52 0 43 c0 41 0 42 35 42 40 0 100 -22
129 -48 30 -27 56 -93 56 -144 0 -41 3 -48 20 -48 17 0 20 7 20 53 -1 122
-100 226 -217 227 -42 0 -42 0 -45 40 l-3 41 -50 -51z"/>
</g>
</svg>
