<?xml version="1.0" standalone="no"?>
<!DOCTYPE svg PUBLIC "-//W3C//DTD SVG 20010904//EN"
 "http://www.w3.org/TR/2001/REC-SVG-20010904/DTD/svg10.dtd">
<svg version="1.0" xmlns="http://www.w3.org/2000/svg"
 width="24" height="24" viewBox="0 0 512.000000 512.000000"
 preserveAspectRatio="xMidYMid meet">

<g transform="translate(0.000000,512.000000) scale(0.100000,-0.100000)"
fill="#000000" stroke="none">
<path d="M1310 5106 c-361 -77 -625 -339 -697 -690 -22 -110 -13 -312 18 -411
90 -290 305 -505 594 -594 89 -28 290 -39 390 -22 481 84 804 555 706 1026
-36 170 -106 306 -219 426 -114 121 -238 197 -399 245 -109 32 -292 41 -393
20z m279 -351 c184 -44 342 -202 386 -386 62 -265 -94 -539 -354 -620 -76 -23
-212 -28 -282 -9 -135 37 -272 147 -334 269 -45 91 -57 141 -57 241 1 152 61
284 174 385 131 117 298 159 467 120z"/>
<path d="M3409 3114 l-736 -736 -56 73 c-30 41 -100 118 -155 171 -558 541
-1447 536 -2002 -12 -287 -284 -430 -636 -430 -1060 l0 -140 837 0 837 0 -41
-42 -40 -43 -192 -659 c-106 -362 -191 -660 -189 -661 2 -2 302 84 668 191
l665 194 1260 1260 1260 1260 -470 470 c-258 258 -472 470 -475 470 -3 0 -336
-331 -741 -736z m1023 -366 l-162 -163 -225 225 -225 225 162 162 163 163 225
-225 225 -225 -163 -162z m-1228 -1229 l-821 -821 -304 -89 c-167 -49 -309
-88 -315 -86 -6 1 27 130 81 315 l92 313 819 820 819 819 225 -225 225 -225
-821 -821z m-1519 1134 c209 -41 394 -141 551 -297 72 -73 154 -179 171 -222
4 -11 -44 -66 -173 -195 l-179 -179 -833 0 -832 0 6 28 c80 359 292 632 606
782 212 101 447 130 683 83z"/>
</g>
</svg>
